<?xml version="1.0" encoding="UTF-8"?>
<svg version="1.1" xmlns="http://www.w3.org/2000/svg" width="160" height="160">
<path d="M0 0 C13.2 0 26.4 0 40 0 C40 3.3 40 6.6 40 10 C43.3 10 46.6 10 50 10 C50 13.3 50 16.6 50 20 C53.3 20 56.6 20 60 20 C60 26.6 60 33.2 60 40 C63.3 40 66.6 40 70 40 C70 56.5 70 73 70 90 C66.7 90 63.4 90 60 90 C60 93.3 60 96.6 60 100 C56.7 100 53.4 100 50 100 C50 103.3 50 106.6 50 110 C30.2 110 10.4 110 -10 110 C-10 106.7 -10 103.4 -10 100 C-13.3 100 -16.6 100 -20 100 C-20 96.7 -20 93.4 -20 90 C-23.3 90 -26.6 90 -30 90 C-30 73.5 -30 57 -30 40 C-26.7 40 -23.4 40 -20 40 C-20 33.4 -20 26.8 -20 20 C-16.7 20 -13.4 20 -10 20 C-10 16.7 -10 13.4 -10 10 C-6.7 10 -3.4 10 0 10 C0 6.7 0 3.4 0 0 Z " fill="#DFCE9B" transform="translate(60,30)"/>
<path d="M0 0 C3.3 0 6.6 0 10 0 C10 3.3 10 6.6 10 10 C13.3 10 16.6 10 20 10 C20 16.6 20 23.2 20 30 C23.3 30 26.6 30 30 30 C30 46.5 30 63 30 80 C26.7 80 23.4 80 20 80 C20 83.3 20 86.6 20 90 C16.7 90 13.4 90 10 90 C10 93.3 10 96.6 10 100 C-9.8 100 -29.6 100 -50 100 C-50 96.7 -50 93.4 -50 90 C-53.3 90 -56.6 90 -60 90 C-60 86.7 -60 83.4 -60 80 C-46.8 80 -33.6 80 -20 80 C-20 76.7 -20 73.4 -20 70 C-16.7 70 -13.4 70 -10 70 C-10 66.7 -10 63.4 -10 60 C-6.7 60 -3.4 60 0 60 C0 40.2 0 20.4 0 0 Z " fill="#B3A57D" transform="translate(100,40)"/>
<path d="M0 0 C3.3 0 6.6 0 10 0 C10 3.3 10 6.6 10 10 C13.3 10 16.6 10 20 10 C20 16.6 20 23.2 20 30 C23.3 30 26.6 30 30 30 C30 46.5 30 63 30 80 C26.7 80 23.4 80 20 80 C20 66.8 20 53.6 20 40 C16.7 40 13.4 40 10 40 C10 33.4 10 26.8 10 20 C6.7 20 3.4 20 0 20 C0 13.4 0 6.8 0 0 Z " fill="#554E3B" transform="translate(100,40)"/>
<path d="M0 0 C13.2 0 26.4 0 40 0 C40 3.3 40 6.6 40 10 C30.1 10 20.2 10 10 10 C10 13.3 10 16.6 10 20 C6.7 20 3.4 20 0 20 C0 23.3 0 26.6 0 30 C-3.3 30 -6.6 30 -10 30 C-10 33.3 -10 36.6 -10 40 C-13.3 40 -16.6 40 -20 40 C-20 33.4 -20 26.8 -20 20 C-16.7 20 -13.4 20 -10 20 C-10 16.7 -10 13.4 -10 10 C-6.7 10 -3.4 10 0 10 C0 6.7 0 3.4 0 0 Z " fill="#B3A57D" transform="translate(60,30)"/>
<path d="M0 0 C6.6 0 13.2 0 20 0 C20 3.3 20 6.6 20 10 C36.5 10 53 10 70 10 C70 13.3 70 16.6 70 20 C50.2 20 30.4 20 10 20 C10 16.7 10 13.4 10 10 C6.7 10 3.4 10 0 10 C0 6.7 0 3.4 0 0 Z " fill="#554E3B" transform="translate(40,120)"/>
<path d="M0 0 C3.3 0 6.6 0 10 0 C10 16.5 10 33 10 50 C6.7 50 3.4 50 0 50 C0 33.5 0 17 0 0 Z " fill="#746B51" transform="translate(30,70)"/>
<path d="M0 0 C3.3 0 6.6 0 10 0 C10 3.3 10 6.6 10 10 C13.3 10 16.6 10 20 10 C20 19.9 20 29.8 20 40 C16.7 40 13.4 40 10 40 C10 33.4 10 26.8 10 20 C6.7 20 3.4 20 0 20 C0 13.4 0 6.8 0 0 Z " fill="#8E825B" transform="translate(100,40)"/>
<path d="M0 0 C3.3 0 6.6 0 10 0 C10 6.6 10 13.2 10 20 C6.7 20 3.4 20 0 20 C0 23.3 0 26.6 0 30 C-3.3 30 -6.6 30 -10 30 C-10 23.4 -10 16.8 -10 10 C-6.7 10 -3.4 10 0 10 C0 6.7 0 3.4 0 0 Z " fill="#F0E6C6" transform="translate(60,50)"/>
<path d="M0 0 C13.2 0 26.4 0 40 0 C40 3.3 40 6.6 40 10 C26.8 10 13.6 10 0 10 C0 6.7 0 3.4 0 0 Z " fill="#746B51" transform="translate(60,30)"/>
<path d="M0 0 C6.6 0 13.2 0 20 0 C20 3.3 20 6.6 20 10 C13.4 10 6.8 10 0 10 C0 6.7 0 3.4 0 0 Z " fill="#8E825B" transform="translate(40,120)"/>
<path d="M0 0 C3.3 0 6.6 0 10 0 C10 6.6 10 13.2 10 20 C6.7 20 3.4 20 0 20 C0 13.4 0 6.8 0 0 Z " fill="#746B51" transform="translate(40,50)"/>
<path d="M0 0 C3.3 0 6.6 0 10 0 C10 3.3 10 6.6 10 10 C6.7 10 3.4 10 0 10 C0 6.7 0 3.4 0 0 Z " fill="#554E3B" transform="translate(110,120)"/>
<path d="M0 0 C3.3 0 6.6 0 10 0 C10 3.3 10 6.6 10 10 C6.7 10 3.4 10 0 10 C0 6.7 0 3.4 0 0 Z " fill="#8E825B" transform="translate(100,120)"/>
<path d="M0 0 C3.3 0 6.6 0 10 0 C10 3.3 10 6.6 10 10 C6.7 10 3.4 10 0 10 C0 6.7 0 3.4 0 0 Z " fill="#554E3B" transform="translate(40,120)"/>
<path d="M0 0 C3.3 0 6.6 0 10 0 C10 3.3 10 6.6 10 10 C6.7 10 3.4 10 0 10 C0 6.7 0 3.4 0 0 Z " fill="#8E825B" transform="translate(110,110)"/>
<path d="M0 0 C3.3 0 6.6 0 10 0 C10 3.3 10 6.6 10 10 C6.7 10 3.4 10 0 10 C0 6.7 0 3.4 0 0 Z " fill="#B3A57D" transform="translate(40,110)"/>
<path d="M0 0 C3.3 0 6.6 0 10 0 C10 3.3 10 6.6 10 10 C6.7 10 3.4 10 0 10 C0 6.7 0 3.4 0 0 Z " fill="#8E825B" transform="translate(110,70)"/>
<path d="M0 0 C3.3 0 6.6 0 10 0 C10 3.3 10 6.6 10 10 C6.7 10 3.4 10 0 10 C0 6.7 0 3.4 0 0 Z " fill="#B3A57D" transform="translate(40,70)"/>
<path d="M0 0 C3.3 0 6.6 0 10 0 C10 3.3 10 6.6 10 10 C6.7 10 3.4 10 0 10 C0 6.7 0 3.4 0 0 Z " fill="#554E3B" transform="translate(110,60)"/>
<path d="M0 0 C3.3 0 6.6 0 10 0 C10 3.3 10 6.6 10 10 C6.7 10 3.4 10 0 10 C0 6.7 0 3.4 0 0 Z " fill="#746B51" transform="translate(110,50)"/>
<path d="M0 0 C3.3 0 6.6 0 10 0 C10 3.3 10 6.6 10 10 C6.7 10 3.4 10 0 10 C0 6.7 0 3.4 0 0 Z " fill="#B3A57D" transform="translate(50,50)"/>
<path d="M0 0 C3.3 0 6.6 0 10 0 C10 3.3 10 6.6 10 10 C6.7 10 3.4 10 0 10 C0 6.7 0 3.4 0 0 Z " fill="#746B51" transform="translate(100,40)"/>
<path d="M0 0 C3.3 0 6.6 0 10 0 C10 3.3 10 6.6 10 10 C6.7 10 3.4 10 0 10 C0 6.7 0 3.4 0 0 Z " fill="#B3A57D" transform="translate(90,40)"/>
<path d="M0 0 C3.3 0 6.6 0 10 0 C10 3.3 10 6.6 10 10 C6.7 10 3.4 10 0 10 C0 6.7 0 3.4 0 0 Z " fill="#746B51" transform="translate(50,40)"/>
</svg>
